<mxfile host="app.diagrams.net" modified="2024-05-17T04:40:54.801Z" agent="Mozilla/5.0 (Windows NT 10.0; Win64; x64) AppleWebKit/537.36 (KHTML, like Gecko) Chrome/124.0.0.0 Safari/537.36 Edg/124.0.0.0" etag="IrVOuae2ez4RCEGTIZby" version="24.4.0" type="device">
  <diagram id="R2lEEEUBdFMjLlhIrx00" name="Page-1">
    <mxGraphModel dx="1721" dy="472" grid="1" gridSize="10" guides="1" tooltips="1" connect="1" arrows="1" fold="1" page="1" pageScale="1" pageWidth="850" pageHeight="1100" math="0" shadow="0" extFonts="Permanent Marker^https://fonts.googleapis.com/css?family=Permanent+Marker">
      <root>
        <mxCell id="0" />
        <mxCell id="1" parent="0" />
        <mxCell id="vFTebMIQCHCHkK2F2LsA-33" style="edgeStyle=orthogonalEdgeStyle;rounded=0;orthogonalLoop=1;jettySize=auto;html=1;startArrow=ERone;startFill=0;endArrow=ERzeroToMany;endFill=0;exitX=0.996;exitY=0.357;exitDx=0;exitDy=0;exitPerimeter=0;entryX=1;entryY=0.5;entryDx=0;entryDy=0;" parent="1" target="vFTebMIQCHCHkK2F2LsA-26" edge="1">
          <mxGeometry relative="1" as="geometry">
            <mxPoint x="700" y="810" as="targetPoint" />
            <mxPoint x="702.0000000000002" y="519.2499999999998" as="sourcePoint" />
            <Array as="points">
              <mxPoint x="759" y="519" />
              <mxPoint x="759" y="696" />
            </Array>
          </mxGeometry>
        </mxCell>
        <mxCell id="C-vyLk0tnHw3VtMMgP7b-13" value="UnpaidFees" style="shape=table;startSize=30;container=1;collapsible=1;childLayout=tableLayout;fixedRows=1;rowLines=0;fontStyle=1;align=center;resizeLast=1;" parent="1" vertex="1">
          <mxGeometry x="453" y="216" width="250" height="349.99999999999943" as="geometry" />
        </mxCell>
        <mxCell id="C-vyLk0tnHw3VtMMgP7b-14" value="" style="shape=partialRectangle;collapsible=0;dropTarget=0;pointerEvents=0;fillColor=none;points=[[0,0.5],[1,0.5]];portConstraint=eastwest;top=0;left=0;right=0;bottom=1;" parent="C-vyLk0tnHw3VtMMgP7b-13" vertex="1">
          <mxGeometry y="30" width="250" height="30" as="geometry" />
        </mxCell>
        <mxCell id="C-vyLk0tnHw3VtMMgP7b-15" value="PK" style="shape=partialRectangle;overflow=hidden;connectable=0;fillColor=none;top=0;left=0;bottom=0;right=0;fontStyle=1;" parent="C-vyLk0tnHw3VtMMgP7b-14" vertex="1">
          <mxGeometry width="30" height="30" as="geometry">
            <mxRectangle width="30" height="30" as="alternateBounds" />
          </mxGeometry>
        </mxCell>
        <mxCell id="C-vyLk0tnHw3VtMMgP7b-16" value="challan_no" style="shape=partialRectangle;overflow=hidden;connectable=0;fillColor=none;top=0;left=0;bottom=0;right=0;align=left;spacingLeft=6;fontStyle=5;" parent="C-vyLk0tnHw3VtMMgP7b-14" vertex="1">
          <mxGeometry x="30" width="220" height="30" as="geometry">
            <mxRectangle width="220" height="30" as="alternateBounds" />
          </mxGeometry>
        </mxCell>
        <mxCell id="C-vyLk0tnHw3VtMMgP7b-17" value="" style="shape=partialRectangle;collapsible=0;dropTarget=0;pointerEvents=0;fillColor=none;points=[[0,0.5],[1,0.5]];portConstraint=eastwest;top=0;left=0;right=0;bottom=0;" parent="C-vyLk0tnHw3VtMMgP7b-13" vertex="1">
          <mxGeometry y="60" width="250" height="30" as="geometry" />
        </mxCell>
        <mxCell id="C-vyLk0tnHw3VtMMgP7b-18" value="FK" style="shape=partialRectangle;overflow=hidden;connectable=0;fillColor=none;top=0;left=0;bottom=0;right=0;" parent="C-vyLk0tnHw3VtMMgP7b-17" vertex="1">
          <mxGeometry width="30" height="30" as="geometry">
            <mxRectangle width="30" height="30" as="alternateBounds" />
          </mxGeometry>
        </mxCell>
        <mxCell id="C-vyLk0tnHw3VtMMgP7b-19" value="std_numl_id" style="shape=partialRectangle;overflow=hidden;connectable=0;fillColor=none;top=0;left=0;bottom=0;right=0;align=left;spacingLeft=6;" parent="C-vyLk0tnHw3VtMMgP7b-17" vertex="1">
          <mxGeometry x="30" width="220" height="30" as="geometry">
            <mxRectangle width="220" height="30" as="alternateBounds" />
          </mxGeometry>
        </mxCell>
        <mxCell id="C-vyLk0tnHw3VtMMgP7b-20" value="" style="shape=partialRectangle;collapsible=0;dropTarget=0;pointerEvents=0;fillColor=none;points=[[0,0.5],[1,0.5]];portConstraint=eastwest;top=0;left=0;right=0;bottom=0;" parent="C-vyLk0tnHw3VtMMgP7b-13" vertex="1">
          <mxGeometry y="90" width="250" height="250" as="geometry" />
        </mxCell>
        <mxCell id="C-vyLk0tnHw3VtMMgP7b-21" value="FK&#xa;&#xa;FK&#xa;&#xa;&#xa;&#xa;FK&#xa;&#xa;&#xa;&#xa;&#xa;&#xa;&#xa;" style="shape=partialRectangle;overflow=hidden;connectable=0;fillColor=none;top=0;left=0;bottom=0;right=0;verticalAlign=top;" parent="C-vyLk0tnHw3VtMMgP7b-20" vertex="1">
          <mxGeometry width="30" height="250" as="geometry">
            <mxRectangle width="30" height="250" as="alternateBounds" />
          </mxGeometry>
        </mxCell>
        <mxCell id="C-vyLk0tnHw3VtMMgP7b-22" value="challan_id &#xa;&#xa;fee_id  &#xa;&#xa;status &#xa;&#xa;fee_installments  &#xa;&#xa;payment_method  &#xa;&#xa;image &#xa;&#xa;paid_date &#xa;&#xa;status &#xa;&#xa;verified_by" style="shape=partialRectangle;overflow=hidden;connectable=0;fillColor=none;top=0;left=0;bottom=0;right=0;align=left;spacingLeft=6;" parent="C-vyLk0tnHw3VtMMgP7b-20" vertex="1">
          <mxGeometry x="30" width="220" height="250" as="geometry">
            <mxRectangle width="220" height="250" as="alternateBounds" />
          </mxGeometry>
        </mxCell>
        <mxCell id="vFTebMIQCHCHkK2F2LsA-71" style="edgeStyle=orthogonalEdgeStyle;rounded=0;orthogonalLoop=1;jettySize=auto;html=1;entryX=1.006;entryY=-0.067;entryDx=0;entryDy=0;entryPerimeter=0;startArrow=ERmandOne;startFill=0;endArrow=ERzeroToMany;endFill=0;" parent="1" edge="1">
          <mxGeometry relative="1" as="geometry">
            <mxPoint x="120" y="370" as="sourcePoint" />
            <mxPoint x="-29.38000000000011" y="126.64999999999986" as="targetPoint" />
            <Array as="points">
              <mxPoint x="59" y="370" />
              <mxPoint x="59" y="127" />
            </Array>
          </mxGeometry>
        </mxCell>
        <mxCell id="C-vyLk0tnHw3VtMMgP7b-23" value="Users" style="shape=table;startSize=30;container=1;collapsible=1;childLayout=tableLayout;fixedRows=1;rowLines=0;fontStyle=1;align=center;resizeLast=1;" parent="1" vertex="1">
          <mxGeometry x="120" y="109" width="270" height="510" as="geometry" />
        </mxCell>
        <mxCell id="C-vyLk0tnHw3VtMMgP7b-24" value="" style="shape=partialRectangle;collapsible=0;dropTarget=0;pointerEvents=0;fillColor=none;points=[[0,0.5],[1,0.5]];portConstraint=eastwest;top=0;left=0;right=0;bottom=1;" parent="C-vyLk0tnHw3VtMMgP7b-23" vertex="1">
          <mxGeometry y="30" width="270" height="30" as="geometry" />
        </mxCell>
        <mxCell id="C-vyLk0tnHw3VtMMgP7b-25" value="PK" style="shape=partialRectangle;overflow=hidden;connectable=0;fillColor=none;top=0;left=0;bottom=0;right=0;fontStyle=1;" parent="C-vyLk0tnHw3VtMMgP7b-24" vertex="1">
          <mxGeometry width="30" height="30" as="geometry">
            <mxRectangle width="30" height="30" as="alternateBounds" />
          </mxGeometry>
        </mxCell>
        <mxCell id="C-vyLk0tnHw3VtMMgP7b-26" value="numl_id" style="shape=partialRectangle;overflow=hidden;connectable=0;fillColor=none;top=0;left=0;bottom=0;right=0;align=left;spacingLeft=6;fontStyle=5;" parent="C-vyLk0tnHw3VtMMgP7b-24" vertex="1">
          <mxGeometry x="30" width="240" height="30" as="geometry">
            <mxRectangle width="240" height="30" as="alternateBounds" />
          </mxGeometry>
        </mxCell>
        <mxCell id="C-vyLk0tnHw3VtMMgP7b-27" value="" style="shape=partialRectangle;collapsible=0;dropTarget=0;pointerEvents=0;fillColor=none;points=[[0,0.5],[1,0.5]];portConstraint=eastwest;top=0;left=0;right=0;bottom=0;" parent="C-vyLk0tnHw3VtMMgP7b-23" vertex="1">
          <mxGeometry y="60" width="270" height="450" as="geometry" />
        </mxCell>
        <mxCell id="C-vyLk0tnHw3VtMMgP7b-28" value="&#xa;&#xa;&#xa;&#xa;&#xa;&#xa;&#xa;&#xa;&#xa;&#xa;&#xa;&#xa;FK&#xa;&#xa;FK&#xa;&#xa;&#xa;&#xa;&#xa;&#xa;FK&#xa;&#xa;FK&#xa;&#xa;FK&#xa;&#xa;FK&#xa;&#xa;" style="shape=partialRectangle;overflow=hidden;connectable=0;fillColor=none;top=0;left=0;bottom=0;right=0;align=center;verticalAlign=top;" parent="C-vyLk0tnHw3VtMMgP7b-27" vertex="1">
          <mxGeometry width="30" height="450" as="geometry">
            <mxRectangle width="30" height="450" as="alternateBounds" />
          </mxGeometry>
        </mxCell>
        <mxCell id="C-vyLk0tnHw3VtMMgP7b-29" value="name  &#xa;&#xa;password &#xa;&#xa;father_name  &#xa;&#xa;date_of_birth  &#xa;&#xa;email  &#xa;&#xa;contact &#xa;&#xa;nic  &#xa;&#xa;degree_id  &#xa;&#xa;academic_id  &#xa;&#xa;admission_session  &#xa;&#xa;campus_id  &#xa;&#xa;faculty_id  &#xa;&#xa;dept_id  &#xa;&#xa;fee_plan  &#xa;&#xa;status_of_degree  &#xa;&#xa;is_active " style="shape=partialRectangle;overflow=hidden;connectable=0;fillColor=none;top=0;left=0;bottom=0;right=0;align=left;spacingLeft=6;" parent="C-vyLk0tnHw3VtMMgP7b-27" vertex="1">
          <mxGeometry x="30" width="240" height="450" as="geometry">
            <mxRectangle width="240" height="450" as="alternateBounds" />
          </mxGeometry>
        </mxCell>
        <mxCell id="vFTebMIQCHCHkK2F2LsA-16" value="" style="endArrow=none;html=1;rounded=0;" parent="1" edge="1">
          <mxGeometry width="50" height="50" relative="1" as="geometry">
            <mxPoint x="482" y="560" as="sourcePoint" />
            <mxPoint x="482" y="550" as="targetPoint" />
          </mxGeometry>
        </mxCell>
        <mxCell id="vFTebMIQCHCHkK2F2LsA-18" value="" style="edgeStyle=entityRelationEdgeStyle;endArrow=ERzeroToMany;startArrow=ERmandOne;endFill=0;startFill=0;entryX=0.002;entryY=0.253;entryDx=0;entryDy=0;entryPerimeter=0;" parent="1" target="C-vyLk0tnHw3VtMMgP7b-20" edge="1">
          <mxGeometry width="100" height="100" relative="1" as="geometry">
            <mxPoint x="390" y="382" as="sourcePoint" />
            <mxPoint x="460" y="205" as="targetPoint" />
          </mxGeometry>
        </mxCell>
        <mxCell id="vFTebMIQCHCHkK2F2LsA-19" value="FeeInstallments" style="shape=table;startSize=30;container=1;collapsible=1;childLayout=tableLayout;fixedRows=1;rowLines=0;fontStyle=1;align=center;resizeLast=1;" parent="1" vertex="1">
          <mxGeometry x="450" y="601" width="250" height="140" as="geometry" />
        </mxCell>
        <mxCell id="vFTebMIQCHCHkK2F2LsA-20" value="" style="shape=partialRectangle;collapsible=0;dropTarget=0;pointerEvents=0;fillColor=none;points=[[0,0.5],[1,0.5]];portConstraint=eastwest;top=0;left=0;right=0;bottom=1;" parent="vFTebMIQCHCHkK2F2LsA-19" vertex="1">
          <mxGeometry y="30" width="250" height="30" as="geometry" />
        </mxCell>
        <mxCell id="vFTebMIQCHCHkK2F2LsA-21" value="PK" style="shape=partialRectangle;overflow=hidden;connectable=0;fillColor=none;top=0;left=0;bottom=0;right=0;fontStyle=1;" parent="vFTebMIQCHCHkK2F2LsA-20" vertex="1">
          <mxGeometry width="30" height="30" as="geometry">
            <mxRectangle width="30" height="30" as="alternateBounds" />
          </mxGeometry>
        </mxCell>
        <mxCell id="vFTebMIQCHCHkK2F2LsA-22" value="id" style="shape=partialRectangle;overflow=hidden;connectable=0;fillColor=none;top=0;left=0;bottom=0;right=0;align=left;spacingLeft=6;fontStyle=5;" parent="vFTebMIQCHCHkK2F2LsA-20" vertex="1">
          <mxGeometry x="30" width="220" height="30" as="geometry">
            <mxRectangle width="220" height="30" as="alternateBounds" />
          </mxGeometry>
        </mxCell>
        <mxCell id="vFTebMIQCHCHkK2F2LsA-26" value="" style="shape=partialRectangle;collapsible=0;dropTarget=0;pointerEvents=0;fillColor=none;points=[[0,0.5],[1,0.5]];portConstraint=eastwest;top=0;left=0;right=0;bottom=0;" parent="vFTebMIQCHCHkK2F2LsA-19" vertex="1">
          <mxGeometry y="60" width="250" height="70" as="geometry" />
        </mxCell>
        <mxCell id="vFTebMIQCHCHkK2F2LsA-27" value="FK&#xa;&#xa;" style="shape=partialRectangle;overflow=hidden;connectable=0;fillColor=none;top=0;left=0;bottom=0;right=0;" parent="vFTebMIQCHCHkK2F2LsA-26" vertex="1">
          <mxGeometry width="30" height="70" as="geometry">
            <mxRectangle width="30" height="70" as="alternateBounds" />
          </mxGeometry>
        </mxCell>
        <mxCell id="vFTebMIQCHCHkK2F2LsA-28" value="Installment_id &#xa;&#xa;installement_no " style="shape=partialRectangle;overflow=hidden;connectable=0;fillColor=none;top=0;left=0;bottom=0;right=0;align=left;spacingLeft=6;" parent="vFTebMIQCHCHkK2F2LsA-26" vertex="1">
          <mxGeometry x="30" width="220" height="70" as="geometry">
            <mxRectangle width="220" height="70" as="alternateBounds" />
          </mxGeometry>
        </mxCell>
        <mxCell id="vFTebMIQCHCHkK2F2LsA-34" value="Challans" style="shape=table;startSize=30;container=1;collapsible=1;childLayout=tableLayout;fixedRows=1;rowLines=0;fontStyle=1;align=center;resizeLast=1;" parent="1" vertex="1">
          <mxGeometry x="120" y="640" width="270" height="210" as="geometry" />
        </mxCell>
        <mxCell id="vFTebMIQCHCHkK2F2LsA-35" value="" style="shape=partialRectangle;collapsible=0;dropTarget=0;pointerEvents=0;fillColor=none;points=[[0,0.5],[1,0.5]];portConstraint=eastwest;top=0;left=0;right=0;bottom=1;" parent="vFTebMIQCHCHkK2F2LsA-34" vertex="1">
          <mxGeometry y="30" width="270" height="30" as="geometry" />
        </mxCell>
        <mxCell id="vFTebMIQCHCHkK2F2LsA-36" value="PK" style="shape=partialRectangle;overflow=hidden;connectable=0;fillColor=none;top=0;left=0;bottom=0;right=0;fontStyle=1;" parent="vFTebMIQCHCHkK2F2LsA-35" vertex="1">
          <mxGeometry width="29.999999999999943" height="30" as="geometry">
            <mxRectangle width="29.999999999999943" height="30" as="alternateBounds" />
          </mxGeometry>
        </mxCell>
        <mxCell id="vFTebMIQCHCHkK2F2LsA-37" value="challan_id" style="shape=partialRectangle;overflow=hidden;connectable=0;fillColor=none;top=0;left=0;bottom=0;right=0;align=left;spacingLeft=6;fontStyle=5;" parent="vFTebMIQCHCHkK2F2LsA-35" vertex="1">
          <mxGeometry x="29.999999999999943" width="240.00000000000006" height="30" as="geometry">
            <mxRectangle width="240.00000000000006" height="30" as="alternateBounds" />
          </mxGeometry>
        </mxCell>
        <mxCell id="vFTebMIQCHCHkK2F2LsA-38" value="" style="shape=partialRectangle;collapsible=0;dropTarget=0;pointerEvents=0;fillColor=none;points=[[0,0.5],[1,0.5]];portConstraint=eastwest;top=0;left=0;right=0;bottom=0;" parent="vFTebMIQCHCHkK2F2LsA-34" vertex="1">
          <mxGeometry y="60" width="270" height="30" as="geometry" />
        </mxCell>
        <mxCell id="vFTebMIQCHCHkK2F2LsA-39" value="" style="shape=partialRectangle;overflow=hidden;connectable=0;fillColor=none;top=0;left=0;bottom=0;right=0;" parent="vFTebMIQCHCHkK2F2LsA-38" vertex="1">
          <mxGeometry width="29.999999999999943" height="30" as="geometry">
            <mxRectangle width="29.999999999999943" height="30" as="alternateBounds" />
          </mxGeometry>
        </mxCell>
        <mxCell id="vFTebMIQCHCHkK2F2LsA-40" value="current_seesion " style="shape=partialRectangle;overflow=hidden;connectable=0;fillColor=none;top=0;left=0;bottom=0;right=0;align=left;spacingLeft=6;" parent="vFTebMIQCHCHkK2F2LsA-38" vertex="1">
          <mxGeometry x="29.999999999999943" width="240.00000000000006" height="30" as="geometry">
            <mxRectangle width="240.00000000000006" height="30" as="alternateBounds" />
          </mxGeometry>
        </mxCell>
        <mxCell id="vFTebMIQCHCHkK2F2LsA-41" value="" style="shape=partialRectangle;collapsible=0;dropTarget=0;pointerEvents=0;fillColor=none;points=[[0,0.5],[1,0.5]];portConstraint=eastwest;top=0;left=0;right=0;bottom=0;" parent="vFTebMIQCHCHkK2F2LsA-34" vertex="1">
          <mxGeometry y="90" width="270" height="120" as="geometry" />
        </mxCell>
        <mxCell id="vFTebMIQCHCHkK2F2LsA-42" value="FK" style="shape=partialRectangle;overflow=hidden;connectable=0;fillColor=none;top=0;left=0;bottom=0;right=0;align=center;verticalAlign=bottom;" parent="vFTebMIQCHCHkK2F2LsA-41" vertex="1">
          <mxGeometry width="29.999999999999943" height="120" as="geometry">
            <mxRectangle width="29.999999999999943" height="120" as="alternateBounds" />
          </mxGeometry>
        </mxCell>
        <mxCell id="vFTebMIQCHCHkK2F2LsA-43" value="due_date &#xa;&#xa;fee_for &#xa;&#xa;issue_date  &#xa;&#xa;added_by " style="shape=partialRectangle;overflow=hidden;connectable=0;fillColor=none;top=0;left=0;bottom=0;right=0;align=left;spacingLeft=6;" parent="vFTebMIQCHCHkK2F2LsA-41" vertex="1">
          <mxGeometry x="29.999999999999943" width="240.00000000000006" height="120" as="geometry">
            <mxRectangle width="240.00000000000006" height="120" as="alternateBounds" />
          </mxGeometry>
        </mxCell>
        <mxCell id="vFTebMIQCHCHkK2F2LsA-46" style="edgeStyle=orthogonalEdgeStyle;rounded=0;orthogonalLoop=1;jettySize=auto;html=1;exitX=1;exitY=0.5;exitDx=0;exitDy=0;startArrow=ERmandOne;startFill=0;endArrow=ERmandOne;endFill=0;entryX=-0.003;entryY=1.004;entryDx=0;entryDy=0;entryPerimeter=0;" parent="1" source="vFTebMIQCHCHkK2F2LsA-38" target="C-vyLk0tnHw3VtMMgP7b-20" edge="1">
          <mxGeometry relative="1" as="geometry">
            <mxPoint x="440" y="660" as="targetPoint" />
            <mxPoint x="370" y="827" as="sourcePoint" />
            <Array as="points">
              <mxPoint x="420" y="715" />
              <mxPoint x="420" y="681" />
              <mxPoint x="430" y="681" />
              <mxPoint x="430" y="557" />
            </Array>
          </mxGeometry>
        </mxCell>
        <mxCell id="vFTebMIQCHCHkK2F2LsA-60" value="AccountBook" style="shape=table;startSize=30;container=1;collapsible=1;childLayout=tableLayout;fixedRows=1;rowLines=0;fontStyle=1;align=center;resizeLast=1;" parent="1" vertex="1">
          <mxGeometry x="-300" y="40" width="270" height="149.99999999999955" as="geometry" />
        </mxCell>
        <mxCell id="vFTebMIQCHCHkK2F2LsA-61" value="" style="shape=partialRectangle;collapsible=0;dropTarget=0;pointerEvents=0;fillColor=none;points=[[0,0.5],[1,0.5]];portConstraint=eastwest;top=0;left=0;right=0;bottom=1;" parent="vFTebMIQCHCHkK2F2LsA-60" vertex="1">
          <mxGeometry y="30" width="270" height="30" as="geometry" />
        </mxCell>
        <mxCell id="vFTebMIQCHCHkK2F2LsA-62" value="PK" style="shape=partialRectangle;overflow=hidden;connectable=0;fillColor=none;top=0;left=0;bottom=0;right=0;fontStyle=1;" parent="vFTebMIQCHCHkK2F2LsA-61" vertex="1">
          <mxGeometry width="30" height="30" as="geometry">
            <mxRectangle width="30" height="30" as="alternateBounds" />
          </mxGeometry>
        </mxCell>
        <mxCell id="vFTebMIQCHCHkK2F2LsA-63" value="account_id" style="shape=partialRectangle;overflow=hidden;connectable=0;fillColor=none;top=0;left=0;bottom=0;right=0;align=left;spacingLeft=6;fontStyle=5;" parent="vFTebMIQCHCHkK2F2LsA-61" vertex="1">
          <mxGeometry x="30" width="240" height="30" as="geometry">
            <mxRectangle width="240" height="30" as="alternateBounds" />
          </mxGeometry>
        </mxCell>
        <mxCell id="vFTebMIQCHCHkK2F2LsA-64" value="" style="shape=partialRectangle;collapsible=0;dropTarget=0;pointerEvents=0;fillColor=none;points=[[0,0.5],[1,0.5]];portConstraint=eastwest;top=0;left=0;right=0;bottom=0;" parent="vFTebMIQCHCHkK2F2LsA-60" vertex="1">
          <mxGeometry y="60" width="270" height="30" as="geometry" />
        </mxCell>
        <mxCell id="vFTebMIQCHCHkK2F2LsA-65" value="FK" style="shape=partialRectangle;overflow=hidden;connectable=0;fillColor=none;top=0;left=0;bottom=0;right=0;" parent="vFTebMIQCHCHkK2F2LsA-64" vertex="1">
          <mxGeometry width="30" height="30" as="geometry">
            <mxRectangle width="30" height="30" as="alternateBounds" />
          </mxGeometry>
        </mxCell>
        <mxCell id="vFTebMIQCHCHkK2F2LsA-66" value="std_numl_id " style="shape=partialRectangle;overflow=hidden;connectable=0;fillColor=none;top=0;left=0;bottom=0;right=0;align=left;spacingLeft=6;" parent="vFTebMIQCHCHkK2F2LsA-64" vertex="1">
          <mxGeometry x="30" width="240" height="30" as="geometry">
            <mxRectangle width="240" height="30" as="alternateBounds" />
          </mxGeometry>
        </mxCell>
        <mxCell id="vFTebMIQCHCHkK2F2LsA-67" value="" style="shape=partialRectangle;collapsible=0;dropTarget=0;pointerEvents=0;fillColor=none;points=[[0,0.5],[1,0.5]];portConstraint=eastwest;top=0;left=0;right=0;bottom=0;" parent="vFTebMIQCHCHkK2F2LsA-60" vertex="1">
          <mxGeometry y="90" width="270" height="50" as="geometry" />
        </mxCell>
        <mxCell id="vFTebMIQCHCHkK2F2LsA-68" value="FK&#xa;&#xa;" style="shape=partialRectangle;overflow=hidden;connectable=0;fillColor=none;top=0;left=0;bottom=0;right=0;" parent="vFTebMIQCHCHkK2F2LsA-67" vertex="1">
          <mxGeometry width="30" height="50" as="geometry">
            <mxRectangle width="30" height="50" as="alternateBounds" />
          </mxGeometry>
        </mxCell>
        <mxCell id="vFTebMIQCHCHkK2F2LsA-69" value="challan_no  &#xa;&#xa;paid_date " style="shape=partialRectangle;overflow=hidden;connectable=0;fillColor=none;top=0;left=0;bottom=0;right=0;align=left;spacingLeft=6;" parent="vFTebMIQCHCHkK2F2LsA-67" vertex="1">
          <mxGeometry x="30" width="240" height="50" as="geometry">
            <mxRectangle width="240" height="50" as="alternateBounds" />
          </mxGeometry>
        </mxCell>
        <mxCell id="vFTebMIQCHCHkK2F2LsA-95" style="edgeStyle=orthogonalEdgeStyle;rounded=0;orthogonalLoop=1;jettySize=auto;html=1;entryX=-0.003;entryY=0.342;entryDx=0;entryDy=0;entryPerimeter=0;endArrow=ERoneToMany;endFill=0;startArrow=ERmandOne;startFill=0;" parent="1" source="vFTebMIQCHCHkK2F2LsA-85" target="vFTebMIQCHCHkK2F2LsA-41" edge="1">
          <mxGeometry relative="1" as="geometry" />
        </mxCell>
        <mxCell id="vFTebMIQCHCHkK2F2LsA-247" style="edgeStyle=orthogonalEdgeStyle;rounded=0;orthogonalLoop=1;jettySize=auto;html=1;startArrow=ERone;startFill=0;endArrow=ERmany;endFill=0;entryX=0.5;entryY=1;entryDx=0;entryDy=0;" parent="1" source="vFTebMIQCHCHkK2F2LsA-85" edge="1" target="vFTebMIQCHCHkK2F2LsA-231">
          <mxGeometry relative="1" as="geometry">
            <mxPoint x="530" y="980" as="targetPoint" />
            <Array as="points">
              <mxPoint x="-165" y="1020" />
              <mxPoint x="577" y="1020" />
            </Array>
          </mxGeometry>
        </mxCell>
        <mxCell id="vFTebMIQCHCHkK2F2LsA-185" style="edgeStyle=orthogonalEdgeStyle;rounded=0;orthogonalLoop=1;jettySize=auto;html=1;entryX=0.993;entryY=0.131;entryDx=0;entryDy=0;entryPerimeter=0;startArrow=ERone;startFill=0;endArrow=ERmany;endFill=0;exitX=1;exitY=0.5;exitDx=0;exitDy=0;" parent="1" source="C-vyLk0tnHw3VtMMgP7b-17" edge="1">
          <mxGeometry relative="1" as="geometry">
            <mxPoint x="-30.8900000000001" y="73.93000000000006" as="targetPoint" />
            <Array as="points">
              <mxPoint x="771" y="291" />
              <mxPoint x="771" y="74" />
            </Array>
            <mxPoint x="703" y="414.9999999999998" as="sourcePoint" />
          </mxGeometry>
        </mxCell>
        <mxCell id="vFTebMIQCHCHkK2F2LsA-218" value="MiscellaneousFees" style="shape=table;startSize=30;container=1;collapsible=1;childLayout=tableLayout;fixedRows=1;rowLines=0;fontStyle=1;align=center;resizeLast=1;" parent="1" vertex="1">
          <mxGeometry x="-300" y="300" width="270" height="169.99999999999955" as="geometry" />
        </mxCell>
        <mxCell id="vFTebMIQCHCHkK2F2LsA-219" value="" style="shape=partialRectangle;collapsible=0;dropTarget=0;pointerEvents=0;fillColor=none;points=[[0,0.5],[1,0.5]];portConstraint=eastwest;top=0;left=0;right=0;bottom=1;" parent="vFTebMIQCHCHkK2F2LsA-218" vertex="1">
          <mxGeometry y="30" width="270" height="30" as="geometry" />
        </mxCell>
        <mxCell id="vFTebMIQCHCHkK2F2LsA-220" value="PK" style="shape=partialRectangle;overflow=hidden;connectable=0;fillColor=none;top=0;left=0;bottom=0;right=0;fontStyle=1;" parent="vFTebMIQCHCHkK2F2LsA-219" vertex="1">
          <mxGeometry width="30" height="30" as="geometry">
            <mxRectangle width="30" height="30" as="alternateBounds" />
          </mxGeometry>
        </mxCell>
        <mxCell id="vFTebMIQCHCHkK2F2LsA-221" value="id" style="shape=partialRectangle;overflow=hidden;connectable=0;fillColor=none;top=0;left=0;bottom=0;right=0;align=left;spacingLeft=6;fontStyle=5;" parent="vFTebMIQCHCHkK2F2LsA-219" vertex="1">
          <mxGeometry x="30" width="240" height="30" as="geometry">
            <mxRectangle width="240" height="30" as="alternateBounds" />
          </mxGeometry>
        </mxCell>
        <mxCell id="vFTebMIQCHCHkK2F2LsA-222" value="" style="shape=partialRectangle;collapsible=0;dropTarget=0;pointerEvents=0;fillColor=none;points=[[0,0.5],[1,0.5]];portConstraint=eastwest;top=0;left=0;right=0;bottom=0;" parent="vFTebMIQCHCHkK2F2LsA-218" vertex="1">
          <mxGeometry y="60" width="270" height="20" as="geometry" />
        </mxCell>
        <mxCell id="vFTebMIQCHCHkK2F2LsA-223" value="FK" style="shape=partialRectangle;overflow=hidden;connectable=0;fillColor=none;top=0;left=0;bottom=0;right=0;" parent="vFTebMIQCHCHkK2F2LsA-222" vertex="1">
          <mxGeometry width="30" height="20" as="geometry">
            <mxRectangle width="30" height="20" as="alternateBounds" />
          </mxGeometry>
        </mxCell>
        <mxCell id="vFTebMIQCHCHkK2F2LsA-224" value="campus " style="shape=partialRectangle;overflow=hidden;connectable=0;fillColor=none;top=0;left=0;bottom=0;right=0;align=left;spacingLeft=6;" parent="vFTebMIQCHCHkK2F2LsA-222" vertex="1">
          <mxGeometry x="30" width="240" height="20" as="geometry">
            <mxRectangle width="240" height="20" as="alternateBounds" />
          </mxGeometry>
        </mxCell>
        <mxCell id="vFTebMIQCHCHkK2F2LsA-225" value="" style="shape=partialRectangle;collapsible=0;dropTarget=0;pointerEvents=0;fillColor=none;points=[[0,0.5],[1,0.5]];portConstraint=eastwest;top=0;left=0;right=0;bottom=0;" parent="vFTebMIQCHCHkK2F2LsA-218" vertex="1">
          <mxGeometry y="80" width="270" height="80" as="geometry" />
        </mxCell>
        <mxCell id="vFTebMIQCHCHkK2F2LsA-226" value="&#xa;&#xa;&#xa;&#xa;FK" style="shape=partialRectangle;overflow=hidden;connectable=0;fillColor=none;top=0;left=0;bottom=0;right=0;" parent="vFTebMIQCHCHkK2F2LsA-225" vertex="1">
          <mxGeometry width="30" height="80" as="geometry">
            <mxRectangle width="30" height="80" as="alternateBounds" />
          </mxGeometry>
        </mxCell>
        <mxCell id="vFTebMIQCHCHkK2F2LsA-227" value="desc &#xa;&#xa;amount &#xa;&#xa;added_by  " style="shape=partialRectangle;overflow=hidden;connectable=0;fillColor=none;top=0;left=0;bottom=0;right=0;align=left;spacingLeft=6;" parent="vFTebMIQCHCHkK2F2LsA-225" vertex="1">
          <mxGeometry x="30" width="240" height="80" as="geometry">
            <mxRectangle width="240" height="80" as="alternateBounds" />
          </mxGeometry>
        </mxCell>
        <mxCell id="vFTebMIQCHCHkK2F2LsA-229" style="edgeStyle=orthogonalEdgeStyle;rounded=0;orthogonalLoop=1;jettySize=auto;html=1;endArrow=ERmany;endFill=0;startArrow=ERone;startFill=0;entryX=0;entryY=0;entryDx=0;entryDy=0;entryPerimeter=0;exitX=0.001;exitY=0.302;exitDx=0;exitDy=0;exitPerimeter=0;" parent="1" source="vFTebMIQCHCHkK2F2LsA-92" target="vFTebMIQCHCHkK2F2LsA-225" edge="1">
          <mxGeometry relative="1" as="geometry">
            <mxPoint x="-370" y="-110" as="targetPoint" />
            <mxPoint x="-300" y="895" as="sourcePoint" />
            <Array as="points">
              <mxPoint x="-340" y="737" />
              <mxPoint x="-340" y="380" />
            </Array>
          </mxGeometry>
        </mxCell>
        <mxCell id="vFTebMIQCHCHkK2F2LsA-230" style="edgeStyle=orthogonalEdgeStyle;rounded=0;orthogonalLoop=1;jettySize=auto;html=1;entryX=1.001;entryY=0.139;entryDx=0;entryDy=0;entryPerimeter=0;endArrow=ERzeroToMany;endFill=0;startArrow=ERone;startFill=0;" parent="1" source="C-vyLk0tnHw3VtMMgP7b-24" target="vFTebMIQCHCHkK2F2LsA-225" edge="1">
          <mxGeometry relative="1" as="geometry">
            <mxPoint x="80" as="targetPoint" />
            <Array as="points">
              <mxPoint x="80" y="165" />
              <mxPoint x="80" y="391" />
            </Array>
          </mxGeometry>
        </mxCell>
        <mxCell id="vFTebMIQCHCHkK2F2LsA-231" value="FeeStructure" style="shape=table;startSize=30;container=1;collapsible=1;childLayout=tableLayout;fixedRows=1;rowLines=0;fontStyle=1;align=center;resizeLast=1;spacingTop=1;" parent="1" vertex="1">
          <mxGeometry x="452" y="790" width="250" height="199.99999999999955" as="geometry" />
        </mxCell>
        <mxCell id="vFTebMIQCHCHkK2F2LsA-232" value="" style="shape=partialRectangle;collapsible=0;dropTarget=0;pointerEvents=0;fillColor=none;points=[[0,0.5],[1,0.5]];portConstraint=eastwest;top=0;left=0;right=0;bottom=1;" parent="vFTebMIQCHCHkK2F2LsA-231" vertex="1">
          <mxGeometry y="30" width="250" height="30" as="geometry" />
        </mxCell>
        <mxCell id="vFTebMIQCHCHkK2F2LsA-233" value="PK" style="shape=partialRectangle;overflow=hidden;connectable=0;fillColor=none;top=0;left=0;bottom=0;right=0;fontStyle=1;" parent="vFTebMIQCHCHkK2F2LsA-232" vertex="1">
          <mxGeometry width="30" height="30" as="geometry">
            <mxRectangle width="30" height="30" as="alternateBounds" />
          </mxGeometry>
        </mxCell>
        <mxCell id="vFTebMIQCHCHkK2F2LsA-234" value="id" style="shape=partialRectangle;overflow=hidden;connectable=0;fillColor=none;top=0;left=0;bottom=0;right=0;align=left;spacingLeft=6;fontStyle=5;spacingTop=2;" parent="vFTebMIQCHCHkK2F2LsA-232" vertex="1">
          <mxGeometry x="30" width="220" height="30" as="geometry">
            <mxRectangle width="220" height="30" as="alternateBounds" />
          </mxGeometry>
        </mxCell>
        <mxCell id="vFTebMIQCHCHkK2F2LsA-235" value="" style="shape=partialRectangle;collapsible=0;dropTarget=0;pointerEvents=0;fillColor=none;points=[[0,0.5],[1,0.5]];portConstraint=eastwest;top=0;left=0;right=0;bottom=0;" parent="vFTebMIQCHCHkK2F2LsA-231" vertex="1">
          <mxGeometry y="60" width="250" height="130" as="geometry" />
        </mxCell>
        <mxCell id="vFTebMIQCHCHkK2F2LsA-236" value="FK&#xa;&#xa;&#xa;&#xa;FK&#xa;&#xa;FK&#xa;&#xa;" style="shape=partialRectangle;overflow=hidden;connectable=0;fillColor=none;top=0;left=0;bottom=0;right=0;" parent="vFTebMIQCHCHkK2F2LsA-235" vertex="1">
          <mxGeometry width="30" height="130" as="geometry">
            <mxRectangle width="30" height="130" as="alternateBounds" />
          </mxGeometry>
        </mxCell>
        <mxCell id="vFTebMIQCHCHkK2F2LsA-237" value="degree_id &#xa;&#xa;session &#xa;&#xa;sub_fee_id &#xa;&#xa;added_by&#xa;&#xa;fee_for " style="shape=partialRectangle;overflow=hidden;connectable=0;fillColor=none;top=0;left=0;bottom=0;right=0;align=left;spacingLeft=6;" parent="vFTebMIQCHCHkK2F2LsA-235" vertex="1">
          <mxGeometry x="30" width="220" height="130" as="geometry">
            <mxRectangle width="220" height="130" as="alternateBounds" />
          </mxGeometry>
        </mxCell>
        <mxCell id="vFTebMIQCHCHkK2F2LsA-246" style="edgeStyle=orthogonalEdgeStyle;rounded=0;orthogonalLoop=1;jettySize=auto;html=1;entryX=1;entryY=0.5;entryDx=0;entryDy=0;startArrow=ERone;startFill=0;endArrow=ERone;endFill=0;" parent="1" target="vFTebMIQCHCHkK2F2LsA-232" edge="1">
          <mxGeometry relative="1" as="geometry">
            <mxPoint x="702" y="933" as="targetPoint" />
            <Array as="points">
              <mxPoint x="720" y="430" />
              <mxPoint x="720" y="830" />
            </Array>
            <mxPoint x="702" y="430" as="sourcePoint" />
          </mxGeometry>
        </mxCell>
        <mxCell id="Ijy-Hpf_zntCGhp9wrkx-43" value="" style="endArrow=none;html=1;rounded=0;" parent="1" edge="1">
          <mxGeometry width="50" height="50" relative="1" as="geometry">
            <mxPoint x="-270" y="190" as="sourcePoint" />
            <mxPoint x="-270" y="180" as="targetPoint" />
          </mxGeometry>
        </mxCell>
        <mxCell id="Ijy-Hpf_zntCGhp9wrkx-49" value="" style="endArrow=none;html=1;rounded=0;" parent="1" edge="1">
          <mxGeometry width="50" height="50" relative="1" as="geometry">
            <mxPoint x="482" y="1520" as="sourcePoint" />
            <mxPoint x="482" y="1510" as="targetPoint" />
          </mxGeometry>
        </mxCell>
        <mxCell id="vFTebMIQCHCHkK2F2LsA-85" value="Admin" style="shape=table;startSize=30;container=1;collapsible=1;childLayout=tableLayout;fixedRows=1;rowLines=0;fontStyle=1;align=center;resizeLast=1;" parent="1" vertex="1">
          <mxGeometry x="-300" y="590" width="270" height="289.99999999999955" as="geometry" />
        </mxCell>
        <mxCell id="vFTebMIQCHCHkK2F2LsA-86" value="" style="shape=partialRectangle;collapsible=0;dropTarget=0;pointerEvents=0;fillColor=none;points=[[0,0.5],[1,0.5]];portConstraint=eastwest;top=0;left=0;right=0;bottom=1;" parent="vFTebMIQCHCHkK2F2LsA-85" vertex="1">
          <mxGeometry y="30" width="270" height="30" as="geometry" />
        </mxCell>
        <mxCell id="vFTebMIQCHCHkK2F2LsA-87" value="PK" style="shape=partialRectangle;overflow=hidden;connectable=0;fillColor=none;top=0;left=0;bottom=0;right=0;fontStyle=1;" parent="vFTebMIQCHCHkK2F2LsA-86" vertex="1">
          <mxGeometry width="30" height="30" as="geometry">
            <mxRectangle width="30" height="30" as="alternateBounds" />
          </mxGeometry>
        </mxCell>
        <mxCell id="vFTebMIQCHCHkK2F2LsA-88" value="email_id" style="shape=partialRectangle;overflow=hidden;connectable=0;fillColor=none;top=0;left=0;bottom=0;right=0;align=left;spacingLeft=6;fontStyle=4;" parent="vFTebMIQCHCHkK2F2LsA-86" vertex="1">
          <mxGeometry x="30" width="240" height="30" as="geometry">
            <mxRectangle width="240" height="30" as="alternateBounds" />
          </mxGeometry>
        </mxCell>
        <mxCell id="vFTebMIQCHCHkK2F2LsA-89" value="" style="shape=partialRectangle;collapsible=0;dropTarget=0;pointerEvents=0;fillColor=none;points=[[0,0.5],[1,0.5]];portConstraint=eastwest;top=0;left=0;right=0;bottom=0;" parent="vFTebMIQCHCHkK2F2LsA-85" vertex="1">
          <mxGeometry y="60" width="270" height="30" as="geometry" />
        </mxCell>
        <mxCell id="vFTebMIQCHCHkK2F2LsA-90" value="" style="shape=partialRectangle;overflow=hidden;connectable=0;fillColor=none;top=0;left=0;bottom=0;right=0;" parent="vFTebMIQCHCHkK2F2LsA-89" vertex="1">
          <mxGeometry width="30" height="30" as="geometry">
            <mxRectangle width="30" height="30" as="alternateBounds" />
          </mxGeometry>
        </mxCell>
        <mxCell id="vFTebMIQCHCHkK2F2LsA-91" value="password " style="shape=partialRectangle;overflow=hidden;connectable=0;fillColor=none;top=0;left=0;bottom=0;right=0;align=left;spacingLeft=6;" parent="vFTebMIQCHCHkK2F2LsA-89" vertex="1">
          <mxGeometry x="30" width="240" height="30" as="geometry">
            <mxRectangle width="240" height="30" as="alternateBounds" />
          </mxGeometry>
        </mxCell>
        <mxCell id="vFTebMIQCHCHkK2F2LsA-92" value="" style="shape=partialRectangle;collapsible=0;dropTarget=0;pointerEvents=0;fillColor=none;points=[[0,0.5],[1,0.5]];portConstraint=eastwest;top=0;left=0;right=0;bottom=0;" parent="vFTebMIQCHCHkK2F2LsA-85" vertex="1">
          <mxGeometry y="90" width="270" height="190" as="geometry" />
        </mxCell>
        <mxCell id="vFTebMIQCHCHkK2F2LsA-93" value="&#xa;&#xa;FK&#xa;&#xa;FK&#xa;&#xa;FK&#xa;&#xa;&#xa;&#xa;" style="shape=partialRectangle;overflow=hidden;connectable=0;fillColor=none;top=0;left=0;bottom=0;right=0;verticalAlign=top;" parent="vFTebMIQCHCHkK2F2LsA-92" vertex="1">
          <mxGeometry width="30" height="190" as="geometry">
            <mxRectangle width="30" height="190" as="alternateBounds" />
          </mxGeometry>
        </mxCell>
        <mxCell id="vFTebMIQCHCHkK2F2LsA-94" value="post &#xa;&#xa;campus_id &#xa;&#xa;faculty_id  &#xa;&#xa;dept_id  &#xa;&#xa;role &#xa;&#xa;added_by  &#xa;&#xa;is_active  " style="shape=partialRectangle;overflow=hidden;connectable=0;fillColor=none;top=0;left=0;bottom=0;right=0;align=left;spacingLeft=6;" parent="vFTebMIQCHCHkK2F2LsA-92" vertex="1">
          <mxGeometry x="30" width="240" height="190" as="geometry">
            <mxRectangle width="240" height="190" as="alternateBounds" />
          </mxGeometry>
        </mxCell>
      </root>
    </mxGraphModel>
  </diagram>
</mxfile>
